<?xml version="1.0" standalone="no"?>
<!DOCTYPE svg PUBLIC "-//W3C//DTD SVG 20010904//EN"
 "http://www.w3.org/TR/2001/REC-SVG-20010904/DTD/svg10.dtd">
<svg version="1.0" xmlns="http://www.w3.org/2000/svg"
 width="300.000000pt" height="300.000000pt" viewBox="0 0 300.000000 300.000000"
 preserveAspectRatio="xMidYMid meet">
<metadata>
Created by potrace 1.10, written by Peter Selinger 2001-2011
</metadata>
<g transform="translate(0.000000,300.000000) scale(0.100000,-0.100000)"
fill="#ffffff" stroke="none">
<path d="M1010 2365 c-268 -59 -475 -255 -541 -513 -10 -41 -19 -99 -19 -128
l0 -53 -57 -16 c-192 -56 -343 -215 -382 -403 -53 -256 100 -515 357 -604 l67
-23 1065 0 1065 0 67 23 c178 62 311 206 353 384 64 271 -101 543 -377 623
l-57 16 -16 57 c-52 179 -188 315 -368 367 -117 34 -299 14 -386 -42 -24 -16
-26 -15 -50 18 -13 19 -59 68 -100 109 -84 82 -170 134 -286 170 -91 28 -246
35 -335 15z"/>
</g>
</svg>
