<?xml version="1.0" standalone="no"?>
<!DOCTYPE svg PUBLIC "-//W3C//DTD SVG 20010904//EN"
 "http://www.w3.org/TR/2001/REC-SVG-20010904/DTD/svg10.dtd">
<svg version="1.0" xmlns="http://www.w3.org/2000/svg"
 width="128.000000pt" height="128.000000pt" viewBox="0 0 128.000000 128.000000"
 preserveAspectRatio="xMidYMid meet">
<metadata>
Created by potrace 1.10, written by Peter Selinger 2001-2011
</metadata>
<g transform="translate(0.000000,128.000000) scale(0.100000,-0.100000)"
fill="#ffffff" stroke="none">
<path d="M234 1188 c-23 -77 -62 -117 -137 -143 -31 -10 -57 -22 -57 -25 0 -3
26 -15 57 -25 75 -26 115 -67 139 -144 10 -33 21 -61 24 -61 3 0 14 28 24 61
24 77 64 118 139 144 31 10 57 22 57 25 0 3 -26 15 -57 25 -76 26 -116 67
-138 144 -11 34 -22 61 -25 61 -4 0 -15 -28 -26 -62z"/>
<path d="M956 1080 c-17 -40 -53 -72 -93 -84 -33 -10 -29 -20 17 -40 42 -18
71 -52 87 -101 l10 -30 23 48 c22 47 55 78 98 91 12 4 22 11 22 16 0 5 -10 12
-22 16 -41 12 -77 44 -94 84 -10 22 -21 40 -24 40 -3 0 -14 -18 -24 -40z"/>
<path d="M614 808 c-24 -80 -63 -120 -143 -144 -34 -10 -58 -21 -54 -25 5 -3
33 -15 63 -25 73 -26 113 -67 135 -143 11 -34 21 -61 24 -61 3 0 15 28 25 61
25 80 64 119 144 143 34 11 62 22 62 26 0 4 -28 15 -62 26 -80 24 -118 62
-142 142 -11 34 -22 62 -26 62 -4 0 -15 -28 -26 -62z"/>
<path d="M285 419 c-9 -39 -62 -92 -106 -105 l-34 -11 48 -22 c47 -23 78 -56
91 -98 4 -13 11 -23 16 -23 5 0 12 10 16 23 13 42 44 75 91 98 l48 22 -34 11
c-44 13 -97 66 -106 105 -4 17 -10 31 -15 31 -5 0 -11 -14 -15 -31z"/>
<path d="M1076 280 c-17 -40 -53 -72 -93 -84 -33 -10 -29 -20 17 -40 42 -18
71 -52 87 -101 l10 -30 23 48 c23 49 54 77 105 94 l30 10 -48 23 c-47 22 -78
55 -91 98 -10 32 -20 28 -40 -18z"/>
</g>
</svg>
