<?xml version="1.0" standalone="no"?>
<!DOCTYPE svg PUBLIC "-//W3C//DTD SVG 20010904//EN"
 "http://www.w3.org/TR/2001/REC-SVG-20010904/DTD/svg10.dtd">
<svg version="1.0" xmlns="http://www.w3.org/2000/svg"
 width="600.000000pt" height="600.000000pt" viewBox="0 0 600.000000 600.000000"
 preserveAspectRatio="xMidYMid meet">

<g transform="translate(0.000000,600.000000) scale(0.100000,-0.100000)"
fill="#000000" stroke="none">
<path d="M3190 4965 l0 -95 90 0 90 0 0 -90 0 -90 95 0 95 0 0 -95 0 -95 95 0
95 0 0 -95 0 -95 95 0 95 0 0 -95 0 -95 90 0 90 0 0 -90 0 -90 95 0 95 0 0
-95 0 -95 95 0 95 0 0 -95 0 -95 95 0 95 0 0 -95 0 -95 90 0 90 0 0 -90 0 -90
95 0 95 0 0 -95 0 -95 -95 0 -95 0 0 -95 0 -95 -95 0 -95 0 0 -90 0 -90 -90 0
-90 0 0 -190 0 -190 88 0 89 0 6 -142 c4 -79 7 -207 7 -285 l0 -143 90 0 90 0
0 -90 0 -90 -1685 0 -1685 0 0 -190 0 -190 1688 2 1687 3 3 93 3 92 89 0 90 0
0 845 0 845 95 0 95 0 0 95 0 95 -95 0 -95 0 0 375 0 375 -95 0 -95 0 0 90 0
90 -90 0 -90 0 0 -185 0 -185 -95 0 -95 0 0 95 0 95 -95 0 -95 0 0 95 0 95
-90 0 -90 0 0 90 0 90 -95 0 -95 0 0 95 0 95 -95 0 -95 0 0 95 0 95 -95 0 -95
0 0 95 0 95 -90 0 -90 0 0 90 0 90 -95 0 -95 0 0 -95z"/>
<path d="M3000 4405 l0 -95 -95 0 -95 0 0 -90 0 -90 95 0 95 0 0 90 0 90 95 0
95 0 0 -90 0 -90 90 0 90 0 0 90 0 90 -90 0 -90 0 0 95 0 95 -95 0 -95 0 0
-95z"/>
<path d="M2630 4030 l0 -90 90 0 90 0 0 -95 0 -95 95 0 95 0 0 95 0 95 95 0
95 0 0 -95 0 -95 90 0 90 0 0 95 0 95 -90 0 -90 0 0 90 0 90 -95 0 -95 0 0
-90 0 -90 -95 0 -95 0 0 90 0 90 -90 0 -90 0 0 -90z"/>
<path d="M3380 4030 l0 -90 90 0 90 0 0 -95 0 -95 95 0 95 0 0 95 0 95 -95 0
-95 0 0 90 0 90 -90 0 -90 0 0 -90z"/>
<path d="M2440 3845 l0 -95 90 0 90 0 0 95 0 95 -90 0 -90 0 0 -95z"/>
<path d="M4122 3373 l3 -188 93 -3 92 -3 0 -184 0 -185 95 0 95 0 0 190 0 190
-95 0 -95 0 0 185 0 185 -95 0 -95 0 2 -187z"/>
</g>
</svg>
